/* XPM */
static char * frmMain_xpm[] = {
"16 16 182 2",
"  	c None",
". 	c #5FACE2",
"+ 	c #81BCEA",
"@ 	c #77B7E8",
"# 	c #6DB2E6",
"$ 	c #68B0E4",
"% 	c #8CC0EA",
"& 	c #FFFFFF",
"* 	c #F4F9FD",
"= 	c #EAF3FB",
"- 	c #D9EBF8",
"; 	c #D3E6F8",
"> 	c #C6DFF5",
", 	c #A6CBE9",
"' 	c #5DA8DE",
") 	c #5BA4DA",
"! 	c #9AC6EB",
"~ 	c #E2EFFC",
"{ 	c #E7F0FD",
"] 	c #EBF1FD",
"^ 	c #EEF5FD",
"/ 	c #F1F8FD",
"( 	c #F7FAFD",
"_ 	c #FAFCFF",
": 	c #F7FBFE",
"< 	c #C0DAF4",
"[ 	c #589FD5",
"} 	c #A5CAEB",
"| 	c #FBFDFF",
"1 	c #D5E9FD",
"2 	c #D8EBFD",
"3 	c #DBEAFD",
"4 	c #DFEDFD",
"5 	c #E2F0FD",
"6 	c #E4F1FD",
"7 	c #E4F0FC",
"8 	c #70A0E0",
"9 	c #F9FBFF",
"0 	c #87B8DF",
"a 	c #559AD0",
"b 	c #B2D0ED",
"c 	c #F0F6FF",
"d 	c #CAE1FA",
"e 	c #CCE3FB",
"f 	c #D0E3FB",
"g 	c #D3E6FB",
"h 	c #D5E9FB",
"i 	c #D8E9FC",
"j 	c #DBEAFC",
"k 	c #FDFFFF",
"l 	c #719DD2",
"m 	c #C1D9EE",
"n 	c #5294CA",
"o 	c #C1D9F0",
"p 	c #E1EDFB",
"q 	c #C0DAF9",
"r 	c #C2DCF9",
"s 	c #C5DEF9",
"t 	c #C7E0FA",
"u 	c #CAE2FA",
"v 	c #CDE2FA",
"w 	c #D5D4B9",
"x 	c #D8A558",
"y 	c #DBB185",
"z 	c #D09D46",
"A 	c #A9955E",
"B 	c #4E8EC4",
"C 	c #D8E7F5",
"D 	c #D2E5FA",
"E 	c #BCDAF9",
"F 	c #BCDBF9",
"G 	c #BFDBFA",
"H 	c #C1DDFA",
"I 	c #CFD0AD",
"J 	c #E7BE77",
"K 	c #F0D2B4",
"L 	c #FFF3E5",
"M 	c #EFD2AC",
"N 	c #C78C48",
"O 	c #4B88BD",
"P 	c #F0F6FC",
"Q 	c #C7DFF9",
"R 	c #BDDCF9",
"S 	c #BFDCFA",
"T 	c #C1DBFA",
"U 	c #C3DDFA",
"V 	c #CDD0B2",
"W 	c #EDD581",
"X 	c #F9E3B2",
"Y 	c #E7C08B",
"Z 	c #F6D3AE",
"` 	c #FCE0C4",
" .	c #D39F66",
"..	c #4B85B9",
"+.	c #C1DCF9",
"@.	c #BFDCF8",
"#.	c #C0DBF8",
"$.	c #CAD2BD",
"%.	c #EED47D",
"&.	c #FDF6C4",
"*.	c #F6DD6C",
"=.	c #EDCA6D",
"-.	c #D7A363",
";.	c #D29B5D",
">.	c #5286B9",
",.	c #F9FCFE",
"'.	c #BFDCF9",
").	c #BFDBF8",
"!.	c #C0DCF8",
"~.	c #C9CEBB",
"{.	c #EED379",
"].	c #FDF7C7",
"^.	c #F5DC5F",
"/.	c #F7E25B",
"(.	c #F2D67A",
"_.	c #D29749",
":.	c #5686B7",
"<.	c #FDFEFE",
"[.	c #C2DEFA",
"}.	c #BDBEAD",
"|.	c #E7CB77",
"1.	c #F5DC5E",
"2.	c #F7E15A",
"3.	c #F1D47B",
"4.	c #DB994B",
"5.	c #657B8E",
"6.	c #3C6FA4",
"7.	c #8CAED5",
"8.	c #E5F0FD",
"9.	c #A2C7F7",
"0.	c #B0B6AF",
"a.	c #D5B976",
"b.	c #FDF6C2",
"c.	c #F7DF63",
"d.	c #F8E25D",
"e.	c #F0D379",
"f.	c #DC984A",
"g.	c #BEC6CD",
"h.	c #39699E",
"i.	c #5985B4",
"j.	c #7BA5D9",
"k.	c #80898F",
"l.	c #D5B67A",
"m.	c #D1B790",
"n.	c #E4C955",
"o.	c #F5DF5B",
"p.	c #EDD078",
"q.	c #D0954F",
"r.	c #D2D8E0",
"s.	c #A2BBD8",
"t.	c #366499",
"u.	c #85A4C7",
"v.	c #AA8943",
"w.	c #FFF2E0",
"x.	c #D89A54",
"y.	c #BE7A1A",
"z.	c #C59849",
"A.	c #C68E49",
"B.	c #93A7C6",
"C.	c #DBE8FA",
"D.	c #95AFCE",
"E.	c #6D90B8",
"F.	c #A3BAD6",
"G.	c #B3C6DF",
"H.	c #84672E",
"I.	c #F9C794",
"J.	c #F9C991",
"K.	c #C98541",
"L.	c #AE6B27",
"M.	c #F0E5D8",
"N.	c #DFEBFB",
"O.	c #E6EFFB",
"P.	c #809DC1",
"Q.	c #315B90",
"R.	c #543E14",
"S.	c #865F29",
"T.	c #BB874A",
"U.	c #9B8155",
"V.	c #496487",
"W.	c #41699A",
"X.	c #4F74A3",
"Y.	c #5F82AD",
"      . + @ # $ . . . . . .     ",
"      % & & & & * = - ; > , '   ",
"    ) ! & ~ { ] ^ / ( _ & : < ) ",
"    [ } | 1 2 3 4 5 6 7 & 8 9 0 ",
"    a b c d e f g h i j k l m a ",
"    n o p q r s t u v w x y z A ",
"    B C D E F G H H I J K L M N ",
"    O P Q R S T U V W X Y Z `  .",
"    ..: +.@.@.#.$.%.&.*.=.-.;.  ",
"    >.,.'.).!.~.{.].^./.(._.    ",
"    :.<.[.S }.|.].1.2.3.4.5.    ",
"  6.7.8.9.0.a.b.c.d.e.f.g.6.    ",
"  h.i.j.k.l.m.n.o.p.q.r.s.h.    ",
"t.u.& & v.w.x.y.z.A.B.C.D.t.    ",
"  E.F.G.H.I.J.K.L.M.N.O.P.      ",
"  Q.Q.Q.R.S.T.U.V.W.X.Y.Q.      "};
