/* XPM */
static char * frmPrintOptions_xpm[] = {
"16 16 133 2",
"  	c None",
". 	c #4D8BC8",
"+ 	c #4F8CC8",
"@ 	c #4F8DC8",
"# 	c #4F8CC9",
"$ 	c #4C89C5",
"% 	c #3B76C4",
"& 	c #4986C4",
"* 	c #ECF2F7",
"= 	c #EEF4F8",
"- 	c #EDF3F8",
"; 	c #ECF2F8",
"> 	c #D7E6F2",
", 	c #7DB2E2",
"' 	c #6391DA",
") 	c #4C89C6",
"! 	c #F1F5F9",
"~ 	c #CDE3FC",
"{ 	c #CDE3FB",
"] 	c #C8E0F9",
"^ 	c #C2DCF8",
"/ 	c #F8FBFD",
"( 	c #CDE6FC",
"_ 	c #84B6E2",
": 	c #4279BF",
"< 	c #4B89C6",
"[ 	c #CFE3FC",
"} 	c #CFE4FC",
"| 	c #CAE1FA",
"1 	c #C4DDF9",
"2 	c #DFE9F4",
"3 	c #E9EFF5",
"4 	c #457EC2",
"5 	c #4B89C5",
"6 	c #F0F4F9",
"7 	c #D3E6FC",
"8 	c #D3E7FD",
"9 	c #C8E0FA",
"0 	c #BBD6F5",
"a 	c #B5D4F3",
"b 	c #F0F4F8",
"c 	c #4682C3",
"d 	c #818181",
"e 	c #EFF4F9",
"f 	c #D7E7FE",
"g 	c #D5E7FD",
"h 	c #D2E6FC",
"i 	c #CCE1FB",
"j 	c #BDDAF6",
"k 	c #EFF4FA",
"l 	c #4883C4",
"m 	c #595959",
"n 	c #9A9A9A",
"o 	c #CCCCCC",
"p 	c #4E8BC7",
"q 	c #EDF4F9",
"r 	c #D8E8FE",
"s 	c #D7E8FE",
"t 	c #D3E5FD",
"u 	c #D1E4FC",
"v 	c #C7E0FA",
"w 	c #C3DDF9",
"x 	c #EDF4FA",
"y 	c #4A85C7",
"z 	c #C3C3C3",
"A 	c #747474",
"B 	c #D2D2D2",
"C 	c #E8E8E8",
"D 	c #7D7D7D",
"E 	c #C4C4C4",
"F 	c #565656",
"G 	c #FCFCFC",
"H 	c #CBCBCB",
"I 	c #F2F2F2",
"J 	c #C6C6C6",
"K 	c #707070",
"L 	c #7E7E7E",
"M 	c #F9F9F9",
"N 	c #ABABAB",
"O 	c #DFDFDF",
"P 	c #A3A3A3",
"Q 	c #616161",
"R 	c #7A7A7A",
"S 	c #D7D7D7",
"T 	c #979797",
"U 	c #D8D8D8",
"V 	c #BFBFBF",
"W 	c #8E8E8E",
"X 	c #3F3F3F",
"Y 	c #757575",
"Z 	c #BBBBBB",
"` 	c #8D8D8D",
" .	c #D4D4D4",
"..	c #B9B9B9",
"+.	c #D3D3D3",
"@.	c #838383",
"#.	c #2A2A2A",
"$.	c #B5B5B5",
"%.	c #959595",
"&.	c #797979",
"*.	c #6E6E6E",
"=.	c #525252",
"-.	c #434343",
";.	c #424242",
">.	c #252525",
",.	c #6A6A6A",
"'.	c #A7A7A7",
").	c #AAACAF",
"!.	c #BDC0C5",
"~.	c #A8AAAD",
"{.	c #2C2C2C",
"].	c #9B9B9B",
"^.	c #232323",
"/.	c #636363",
"(.	c #5D5D5D",
"_.	c #585858",
":.	c #6195C7",
"<.	c #F6F7F9",
"[.	c #ECF1F9",
"}.	c #EBF1F9",
"|.	c #E9F0F8",
"1.	c #E6EDF7",
"2.	c #E1EAF4",
"3.	c #DEE8F2",
"4.	c #F6F8FA",
"5.	c #6194C7",
"6.	c #242424",
"7.	c #6195C8",
"8.	c #6598CA",
"9.	c #6597CA",
"0.	c #6497CA",
"a.	c #6497C9",
"b.	c #6194C8",
"        . + + @ # $ %           ",
"      & * = - - ; > , '         ",
"      ) ! ~ { ] ^ / ( _ :       ",
"      < ! [ } | 1 2 * 3 4       ",
"      5 6 7 8 { 9 0 a b c       ",
"    d $ e f g h i ^ j k l m     ",
"  n o p q r s t u v w x y z A   ",
"d B C D D D D D D D D D D C E F ",
"d G G H I I I I I I I I J G G K ",
"L M M N O H H H H H H O P M M Q ",
"R S S T U V V V V V V S W S S X ",
"Y Z Z `  .............+.@.Z Z #.",
"K $.$.%.d d &.*.Q =.-.;.*.$.$.>.",
",.'.$.d ).!.!.!.!.!.!.~.{.$.].^.",
"/.(._.:.<.[.}.|.1.2.3.4.5.6.^.  ",
"      7.8.9.9.9.0.a.a.8.b.      "};
