/* XPM */
static char * frmSegmentEditor_xpm[] = {
"16 16 114 2",
"  	c None",
". 	c #F8F8F8",
"+ 	c #FBFBFB",
"@ 	c #FCFCFC",
"# 	c #949494",
"$ 	c #F4F4F4",
"% 	c #F5F5F5",
"& 	c #F1F1F1",
"* 	c #EFEFEF",
"= 	c #E9E9E9",
"- 	c #E7E7E7",
"; 	c #959595",
"> 	c #F7F7F7",
", 	c #F9F9F9",
"' 	c #F3F3F3",
") 	c #F0F0F0",
"! 	c #EAEAEA",
"~ 	c #F6F6F6",
"{ 	c #999999",
"] 	c #C0C0C0",
"^ 	c #BABABA",
"/ 	c #B4B4B4",
"( 	c #AFAFAF",
"_ 	c #AAAAAA",
": 	c #A5A5A5",
"< 	c #FAFAFC",
"[ 	c #E2EAF4",
"} 	c #E5E9EE",
"| 	c #D7D7BF",
"1 	c #D8A558",
"2 	c #DBB185",
"3 	c #D09D46",
"4 	c #C7C7C7",
"5 	c #C2C2C2",
"6 	c #BEBEBE",
"7 	c #B8B8B8",
"8 	c #B3B8BE",
"9 	c #CDCEAD",
"0 	c #E7BE77",
"a 	c #F0D2B4",
"b 	c #FFF3E5",
"c 	c #EFD2AC",
"d 	c #C78C48",
"e 	c #F4F7FA",
"f 	c #D2D5BB",
"g 	c #EDD581",
"h 	c #F9E3B2",
"i 	c #E7C08B",
"j 	c #F6D3AE",
"k 	c #FCE0C4",
"l 	c #D39F66",
"m 	c #CECECE",
"n 	c #CACACA",
"o 	c #C6C6C6",
"p 	c #C2C6CB",
"q 	c #C8CFBD",
"r 	c #EED47D",
"s 	c #FDF6C4",
"t 	c #F6DD6C",
"u 	c #EDCA6D",
"v 	c #D7A363",
"w 	c #CE985B",
"x 	c #F0F6FB",
"y 	c #CDD1C0",
"z 	c #EED379",
"A 	c #FDF7C7",
"B 	c #F5DC5F",
"C 	c #F7E25B",
"D 	c #F2D67A",
"E 	c #D49C52",
"F 	c #D6D6D6",
"G 	c #CFD4DA",
"H 	c #BEBFB0",
"I 	c #E7CB77",
"J 	c #F5DC5E",
"K 	c #F7E15A",
"L 	c #F1D47B",
"M 	c #DC9D53",
"N 	c #E2E6E9",
"O 	c #EBF2FB",
"P 	c #B5BBB4",
"Q 	c #D5B976",
"R 	c #FDF6C2",
"S 	c #F7DF63",
"T 	c #F8E25D",
"U 	c #F0D379",
"V 	c #DC994C",
"W 	c #E6E9EB",
"X 	c #F7F8FA",
"Y 	c #8A9297",
"Z 	c #D5B67A",
"` 	c #D1B790",
" .	c #E4C955",
"..	c #F5DF5B",
"+.	c #EDD078",
"@.	c #D0954F",
"#.	c #D3D5D8",
"$.	c #B09251",
"%.	c #FFF2E0",
"&.	c #D89A54",
"*.	c #BE7A1A",
"=.	c #C59849",
"-.	c #C68E49",
";.	c #C1CDDE",
">.	c #8B6F3A",
",.	c #F9C794",
"'.	c #F9C991",
").	c #C98541",
"!.	c #AE6C28",
"~.	c #F5F0E9",
"{.	c #533D13",
"].	c #865F29",
"^.	c #BB874A",
"/.	c #987E53",
"                                ",
"    . + @ @ @ @ @ @ . #         ",
"    + $ % % % & * = @ - ;       ",
"    @ > , > > ' ) ! @ ~ $ {     ",
"    @ , ] ^ / ( _ : @ < @ [     ",
"    @ + @ @ + . % & } | 1 2 3   ",
"    @ @ 4 5 6 7 / 8 9 0 a b c d ",
"    @ @ @ @ @ @ e f g h i j k l ",
"    @ @ m n o p q r s t u v w   ",
"    @ @ @ @ x y z A B C D E     ",
"    @ @ F G H I A J K L M N     ",
"    @ @ O P Q R S T U V W @     ",
"    @ X Y Z `  ...+.@.#.+ @     ",
"    @ @ $.%.&.*.=.-.;.@ @ @     ",
"    , @ >.,.'.).!.~.+ @ @ ,     ",
"        {.].^./.                "};
