/* XPM */
static char * frmTeleprompter_xpm[] = {
"16 16 151 2",
"  	c None",
". 	c #D8D8D8",
"+ 	c #D6D6D6",
"@ 	c #D4D4D4",
"# 	c #D1D1D1",
"$ 	c #CECECE",
"% 	c #CACACA",
"& 	c #C7C7C7",
"* 	c #C3C3C3",
"= 	c #BFBFBF",
"- 	c #BBBBBB",
"; 	c #B7B7B7",
"> 	c #B2B2B2",
", 	c #AEAEAE",
"' 	c #A9A9A9",
") 	c #D5D5D5",
"! 	c #EFEFF1",
"~ 	c #DFE1E3",
"{ 	c #DFE0E2",
"] 	c #DFDFE2",
"^ 	c #DEDFE2",
"/ 	c #DEDEE1",
"( 	c #DDDEE1",
"_ 	c #DCDDE0",
": 	c #DCDCDF",
"< 	c #DBDCDF",
"[ 	c #DBDBDE",
"} 	c #ECECEE",
"| 	c #A3A3A3",
"1 	c #D2D2D2",
"2 	c #FFFFFF",
"3 	c #F5F5F5",
"4 	c #E3E2E3",
"5 	c #D0D1D1",
"6 	c #BFBEBF",
"7 	c #ADACAD",
"8 	c #9B9B9B",
"9 	c #888989",
"0 	c #767676",
"a 	c #656464",
"b 	c #D8D9DC",
"c 	c #9D9D9D",
"d 	c #FAFBFB",
"e 	c #E9E9E9",
"f 	c #D6D7D6",
"g 	c #C5C4C4",
"h 	c #B3B2B2",
"i 	c #A0A1A1",
"j 	c #8E8E8E",
"k 	c #7C7C7C",
"l 	c #6A6A6A",
"m 	c #585858",
"n 	c #D7D7DB",
"o 	c #969696",
"p 	c #C9C9C9",
"q 	c #EFEEEE",
"r 	c #DDDCDC",
"s 	c #CACBCA",
"t 	c #B9B8B8",
"u 	c #A7A6A6",
"v 	c #949494",
"w 	c #828282",
"x 	c #707070",
"y 	c #5E5D5D",
"z 	c #4C4C4C",
"A 	c #D6D6DB",
"B 	c #909090",
"C 	c #C4C4C4",
"D 	c #DCDEE1",
"E 	c #E2E2E2",
"F 	c #D0D0D0",
"G 	c #BEBEBE",
"H 	c #ABACAC",
"I 	c #9A9A9A",
"J 	c #888887",
"K 	c #757576",
"L 	c #636363",
"M 	c #515151",
"N 	c #3F3F3F",
"O 	c #D4D5D9",
"P 	c #8A8A8A",
"Q 	c #B1B2B2",
"R 	c #A09F9F",
"S 	c #8E8E8D",
"T 	c #7B7B7B",
"U 	c #696A69",
"V 	c #575757",
"W 	c #454545",
"X 	c #343333",
"Y 	c #D3D3D7",
"Z 	c #848484",
"` 	c #BABABA",
" .	c #CAC9CA",
"..	c #B8B7B8",
"+.	c #A6A6A5",
"@.	c #939394",
"#.	c #818281",
"$.	c #706F6F",
"%.	c #5D5D5E",
"&.	c #4B4B4B",
"*.	c #393939",
"=.	c #272727",
"-.	c #D1D2D7",
";.	c #7E7E7E",
">.	c #B4B4B4",
",.	c #DDDEE0",
"'.	c #BDBDBD",
").	c #ABABAB",
"!.	c #999999",
"~.	c #878787",
"{.	c #757575",
"].	c #2C2D2D",
"^.	c #1B1A1A",
"/.	c #D4D6DA",
"(.	c #787878",
"_.	c #E3E3E4",
":.	c #D5D6D7",
"<.	c #D2D3D6",
"[.	c #D7D8DB",
"}.	c #C1C1C4",
"|.	c #CCCDD2",
"1.	c #CBCCD1",
"2.	c #BABBBD",
"3.	c #D2D2D5",
"4.	c #C9C9CC",
"5.	c #D6D6D8",
"6.	c #727272",
"7.	c #A8A8A8",
"8.	c #9E9E9E",
"9.	c #959595",
"0.	c #A7A7A7",
"a.	c #797979",
"b.	c #717171",
"c.	c #C5C6C8",
"d.	c #8D8D8D",
"e.	c #B2B2B3",
"f.	c #C4C5C7",
"g.	c #C1C1C8",
"h.	c #BCBDC4",
"i.	c #C7C8CD",
"j.	c #A5A5A6",
"k.	c #6F6F6F",
"l.	c #FBFBFB",
"m.	c #F7F7F7",
"n.	c #F6F6F6",
"o.	c #939393",
"p.	c #818181",
"q.	c #747474",
"r.	c #6C6C6C",
"s.	c #696969",
"t.	c #656565",
"  . + @ # $ % & * = - ; > , '   ",
"  ) ! ~ { ] ^ / ( _ : < [ } |   ",
"  1 { 2 3 4 5 6 7 8 9 0 a b c   ",
"  $ ] d e f g h i j k l m n o   ",
"  p / q r s t u v w x y z A B   ",
"  C D E F G H I J K L M N O P   ",
"  = < + C Q R S T U V W X Y Z   ",
"  ` [  ...+.@.#.$.%.&.*.=.-.;.  ",
"  >.,.'.).!.~.{.L M N ].^./.(.  ",
"  , _.:.<.[.}.|.1.2.3.4.4.5.6.  ",
"  7.| 8.I 9.B ).0.w ;.a.{.b.    ",
"            P c.O k             ",
"        d.e.f.g.h.i.j.k.        ",
"        7.l.m.n.3 m.l.o.        ",
"        p.k (.q.x r.s.t.        ",
"                                "};
