/* XPM */
static char * TeleKast_xpm[] = {
"32 32 699 2",
"  	c None",
". 	c #5FACE2",
"+ 	c #72B5E7",
"@ 	c #81BCEA",
"# 	c #7CBAE9",
"$ 	c #77B7E8",
"% 	c #72B4E7",
"& 	c #6DB2E6",
"* 	c #6AB1E5",
"= 	c #68B0E4",
"- 	c #64AEE3",
"; 	c #71B4E5",
"> 	c #78B7E7",
", 	c #9ECCEE",
"' 	c #C0DEF4",
") 	c #BEDCF4",
"! 	c #BBDBF4",
"~ 	c #B8DAF3",
"{ 	c #B6D8F2",
"] 	c #B5D8F2",
"^ 	c #B4D8F2",
"/ 	c #B0D6F1",
"( 	c #ACD4F0",
"_ 	c #AAD3F0",
": 	c #A9D2EF",
"< 	c #A6D0EF",
"[ 	c #A2CFEE",
"} 	c #A1CEEE",
"| 	c #9FCCEE",
"1 	c #9DCBEE",
"2 	c #9AC9ED",
"3 	c #92C4EA",
"4 	c #8ABFE6",
"5 	c #77B5E3",
"6 	c #5DA9DF",
"7 	c #7EB9E6",
"8 	c #8CC0EA",
"9 	c #C6E0F4",
"0 	c #FFFFFF",
"a 	c #FAFCFE",
"b 	c #F4F9FD",
"c 	c #EFF6FC",
"d 	c #EAF3FB",
"e 	c #E2EFFA",
"f 	c #D9EBF8",
"g 	c #D6E8F8",
"h 	c #D3E6F8",
"i 	c #CCE2F6",
"j 	c #C6DFF5",
"k 	c #B6D5EF",
"l 	c #A6CBE9",
"m 	c #83BAE4",
"n 	c #5DA8DE",
"o 	c #81BAE6",
"p 	c #93C3EA",
"q 	c #C9E1F5",
"r 	c #F8FBFE",
"s 	c #F0F7FE",
"t 	c #F2F7FE",
"u 	c #F3F8FE",
"v 	c #F4F8FE",
"w 	c #F5F8FE",
"x 	c #F1F7FD",
"y 	c #EEF6FC",
"z 	c #EBF4FB",
"A 	c #E8F2FA",
"B 	c #E7F2FB",
"C 	c #E6F1FC",
"D 	c #E4F0FB",
"E 	c #D8E9F7",
"F 	c #CEE3F4",
"G 	c #B0D3EF",
"H 	c #90C2E9",
"I 	c #7BB6E4",
"J 	c #5CA5DB",
"K 	c #5BA4DA",
"L 	c #85BAE5",
"M 	c #9AC6EB",
"N 	c #CCE2F5",
"O 	c #E2EFFC",
"P 	c #E4F0FC",
"Q 	c #E7F0FD",
"R 	c #E9F0FD",
"S 	c #EBF1FD",
"T 	c #ECF3FD",
"U 	c #EEF5FD",
"V 	c #F0F6FD",
"W 	c #F1F8FD",
"X 	c #F7FAFD",
"Y 	c #FAFCFF",
"Z 	c #FCFEFF",
"` 	c #FBFDFE",
" .	c #F7FBFE",
"..	c #DCEAF9",
"+.	c #C0DAF4",
"@.	c #90C0E8",
"#.	c #59A1D7",
"$.	c #87BAE4",
"%.	c #A0C8EB",
"&.	c #CEE3F5",
"*.	c #FDFEFF",
"=.	c #ECF5FE",
"-.	c #DCECFC",
";.	c #DEEDFD",
">.	c #E0EEFD",
",.	c #E1EEFD",
"'.	c #E3EEFD",
").	c #E5EFFD",
"!.	c #E6F1FD",
"~.	c #E8F2FD",
"{.	c #EAF4FD",
"].	c #ECF5FD",
"^.	c #EEF6FD",
"/.	c #EFF6FE",
"(.	c #F7FAFE",
"_.	c #D9E6F7",
":.	c #B4CEEF",
"<.	c #C8DCF4",
"[.	c #DCEAFA",
"}.	c #A8CDEB",
"|.	c #72AEDD",
"1.	c #589FD5",
"2.	c #89BAE3",
"3.	c #A5CAEB",
"4.	c #D0E4F5",
"5.	c #FBFDFF",
"6.	c #E8F3FE",
"7.	c #D5E9FD",
"8.	c #D6EAFD",
"9.	c #D8EBFD",
"0.	c #DAEAFD",
"a.	c #DBEAFD",
"b.	c #DDECFD",
"c.	c #DFEDFD",
"d.	c #E2F0FD",
"e.	c #E3F0FD",
"f.	c #E4F1FD",
"g.	c #F2F8FE",
"h.	c #B8D0F0",
"i.	c #70A0E0",
"j.	c #B4CEF0",
"k.	c #F9FBFF",
"l.	c #C0DAEF",
"m.	c #87B8DF",
"n.	c #569CD2",
"o.	c #8BBBE2",
"p.	c #ACCDEC",
"q.	c #D0E3F6",
"r.	c #F6FAFF",
"s.	c #E2EFFD",
"t.	c #D0E5FC",
"u.	c #D1E6FC",
"v.	c #D2E7FC",
"w.	c #D4E7FC",
"x.	c #D6E6FC",
"y.	c #D7E8FC",
"z.	c #D9EAFC",
"A.	c #DAEBFC",
"B.	c #DDEDFC",
"C.	c #DEEDFC",
"D.	c #DFEDFC",
"E.	c #E0EDFC",
"F.	c #FEFFFF",
"G.	c #B7CFEC",
"H.	c #709ED9",
"I.	c #A7C4E8",
"J.	c #DDEAF6",
"K.	c #A8CBE8",
"L.	c #6FAAD8",
"M.	c #559AD0",
"N.	c #8EBBE2",
"O.	c #B2D0ED",
"P.	c #D1E3F6",
"Q.	c #F0F6FF",
"R.	c #DDECFC",
"S.	c #CAE1FA",
"T.	c #CBE2FA",
"U.	c #CCE3FB",
"V.	c #CEE3FB",
"W.	c #D0E3FB",
"X.	c #D2E4FB",
"Y.	c #D3E6FB",
"Z.	c #D4E8FB",
"`.	c #D5E9FB",
" +	c #D6E9FC",
".+	c #D8E9FC",
"++	c #DAEAFC",
"@+	c #DBEAFC",
"#+	c #ECF4FE",
"$+	c #FDFFFF",
"%+	c #B7CEE8",
"&+	c #719DD2",
"*+	c #99BBE0",
"=+	c #C1D9EE",
"-+	c #8EBBE0",
";+	c #5397CD",
">+	c #90BBE1",
",+	c #BAD4EE",
"'+	c #D7E8FB",
")+	c #C5DEFA",
"!+	c #C6DEFA",
"~+	c #C7E0FA",
"{+	c #C9E0FA",
"]+	c #CAE0FA",
"^+	c #CCE2FA",
"/+	c #CDE3FA",
"(+	c #CEE4FA",
"_+	c #D0E6FA",
":+	c #D1E6FB",
"<+	c #D2E6FB",
"[+	c #D5E2EB",
"}+	c #D8DFDA",
"|+	c #E1D8C3",
"1+	c #EAD2AC",
"2+	c #C8BCAC",
"3+	c #A6A7AC",
"4+	c #B7B1A3",
"5+	c #C8BB9A",
"6+	c #A5AC9F",
"7+	c #7598A5",
"8+	c #5294CA",
"9+	c #92BCE0",
"0+	c #C1D9F0",
"a+	c #E1EDFB",
"b+	c #D0E4FA",
"c+	c #C0DAF9",
"d+	c #C1DBF9",
"e+	c #C2DCF9",
"f+	c #C4DDF9",
"g+	c #C5DEF9",
"h+	c #C6DFFA",
"i+	c #C8E1FA",
"j+	c #CAE2FA",
"k+	c #CDE2FA",
"l+	c #D1DBDA",
"m+	c #D5D4B9",
"n+	c #D6BC88",
"o+	c #D8A558",
"p+	c #DAAB6E",
"q+	c #DBB185",
"r+	c #D6A766",
"s+	c #D09D46",
"t+	c #C29A4E",
"u+	c #A9955E",
"v+	c #5091C7",
"w+	c #95BDDF",
"x+	c #CCE0F2",
"y+	c #D3E4F6",
"z+	c #DAE9FA",
"A+	c #BEDAF9",
"B+	c #BEDBF9",
"C+	c #BFDCF9",
"D+	c #C0DCF9",
"E+	c #C2DCFA",
"F+	c #C3DEFA",
"G+	c #C4DEFA",
"H+	c #C5DFFA",
"I+	c #C6E0FA",
"J+	c #CADCE7",
"K+	c #CED9D4",
"L+	c #D6D1B6",
"M+	c #DEC998",
"N+	c #E1C28F",
"O+	c #E4BC86",
"P+	c #E8C79E",
"Q+	c #EDD2B5",
"R+	c #E6C597",
"S+	c #E0B879",
"T+	c #D0A768",
"U+	c #BC8F50",
"V+	c #4E8EC4",
"W+	c #98BEDE",
"X+	c #D8E7F5",
"Y+	c #D5E6F8",
"Z+	c #D2E5FA",
"`+	c #BCDAF9",
" @	c #BCDBF9",
".@	c #BEDBFA",
"+@	c #BFDBFA",
"@@	c #C0DCFA",
"#@	c #C1DDFA",
"$@	c #C8D6D4",
"%@	c #CFD0AD",
"&@	c #DBC792",
"*@	c #E7BE77",
"=@	c #ECC896",
"-@	c #F0D2B4",
";@	c #F8E2CC",
">@	c #FFF3E5",
",@	c #F7E2C8",
"'@	c #EFD2AC",
")@	c #DCB17C",
"!@	c #C78C48",
"~@	c #4C8BC0",
"{@	c #9CBFDE",
"]@	c #E4EEF8",
"^@	c #D8E8F9",
"/@	c #C4DEF9",
"(@	c #BDDBF9",
"_@	c #BEDCFA",
":@	c #C0DBFA",
"<@	c #C1DCFA",
"[@	c #C2DDFA",
"}@	c #C4DAE8",
"|@	c #C7D6D6",
"1@	c #D2D4B6",
"2@	c #DED297",
"3@	c #E7D296",
"4@	c #F0D094",
"5@	c #EECD9A",
"6@	c #ECC9A0",
"7@	c #F3D6B4",
"8@	c #FAE3CA",
"9@	c #F8DEC1",
"0@	c #F6D9B8",
"a@	c #E2B889",
"b@	c #CD9657",
"c@	c #4B88BD",
"d@	c #9EC0DD",
"e@	c #F0F6FC",
"f@	c #C7DFF9",
"g@	c #C2DEF9",
"h@	c #BDDCF9",
"i@	c #BFDCFA",
"j@	c #C1DBFA",
"k@	c #C3DDFA",
"l@	c #C8D6D6",
"m@	c #CDD0B2",
"n@	c #DDD29A",
"o@	c #EDD581",
"p@	c #F3DC9A",
"q@	c #F9E3B2",
"r@	c #F0D29E",
"s@	c #E7C08B",
"t@	c #EECA9C",
"u@	c #F6D3AE",
"v@	c #F9DAB9",
"w@	c #FCE0C4",
"x@	c #E8C096",
"y@	c #D39F66",
"z@	c #4B86BB",
"A@	c #A0C0DC",
"B@	c #F4F8FD",
"C@	c #DCEBFB",
"D@	c #C1DDF9",
"E@	c #BEDCF8",
"F@	c #BEDCF9",
"G@	c #C0DBF9",
"H@	c #C4D9EA",
"I@	c #C6D8DC",
"J@	c #D2D5BA",
"K@	c #DED298",
"L@	c #E9DC9D",
"M@	c #F5E6A2",
"N@	c #F6E399",
"O@	c #F8E08F",
"P@	c #F1D286",
"Q@	c #EAC57C",
"R@	c #E8C082",
"S@	c #E6BB88",
"T@	c #E7BD8D",
"U@	c #E8BF92",
"V@	c #E0B381",
"W@	c #D29D63",
"X@	c #4B85B9",
"Y@	c #A1C0DC",
"Z@	c #C1DCF9",
"`@	c #C0DCF8",
" #	c #BFDCF8",
".#	c #C0DBF8",
"+#	c #C5D6DA",
"@#	c #CAD2BD",
"##	c #DCD39D",
"$#	c #EED47D",
"%#	c #F6E5A0",
"&#	c #FDF6C4",
"*#	c #FAEA98",
"=#	c #F6DD6C",
"-#	c #F2D46C",
";#	c #EDCA6D",
">#	c #E2B668",
",#	c #D7A363",
"'#	c #D59F60",
")#	c #D29B5D",
"!#	c #D19A5B",
"~#	c #4E85B9",
"{#	c #4E86B9",
"]#	c #A3C0DC",
"^#	c #F8FCFE",
"/#	c #C2D8E9",
"(#	c #C4D4DA",
"_#	c #D0D4BA",
":#	c #DCD29B",
"<#	c #E9DC9E",
"[#	c #F6E6A2",
"}#	c #F7E79A",
"|#	c #F9E992",
"1#	c #F8E47A",
"2#	c #F6E064",
"3#	c #F3D86C",
"4#	c #F0D074",
"5#	c #E2B765",
"6#	c #D59D56",
"7#	c #D39B57",
"8#	c #D19959",
"9#	c #5085B8",
"0#	c #5286B9",
"a#	c #A6C1DC",
"b#	c #F9FCFE",
"c#	c #BFDBF8",
"d#	c #C4D5DA",
"e#	c #C9CEBB",
"f#	c #DCD09A",
"g#	c #EED379",
"h#	c #FDF7C7",
"i#	c #F9EA93",
"j#	c #F5DC5F",
"k#	c #F6DF5D",
"l#	c #F7E25B",
"m#	c #F4DC6A",
"n#	c #F2D67A",
"o#	c #E2B762",
"p#	c #D29749",
"q#	c #D19548",
"r#	c #5284B7",
"s#	c #5486B8",
"t#	c #A8C2DB",
"u#	c #C0DDFA",
"v#	c #BFD4E6",
"w#	c #BECDD2",
"x#	c #CBCDB6",
"y#	c #D8CC99",
"z#	c #E7D99C",
"A#	c #F7E799",
"B#	c #F9EA92",
"C#	c #F8E478",
"D#	c #F6DE5C",
"E#	c #F5DD64",
"F#	c #F4DB6B",
"G#	c #EDC967",
"H#	c #E6B862",
"I#	c #C5A265",
"J#	c #A08A69",
"K#	c #A48A65",
"L#	c #5384B5",
"M#	c #5686B7",
"N#	c #AAC2DA",
"O#	c #FDFEFE",
"P#	c #E0EEFC",
"Q#	c #C2DEFA",
"R#	c #BECDD4",
"S#	c #BDBEAD",
"T#	c #D2C492",
"U#	c #E7CB77",
"V#	c #F2E19F",
"W#	c #F5DC5E",
"X#	c #F7E15A",
"Y#	c #F4DA6A",
"Z#	c #F1D47B",
"`#	c #E6B663",
" $	c #DB994B",
".$	c #A58B69",
"+$	c #657B8E",
"@$	c #628EBC",
"#$	c #719AC6",
"$$	c #B1C8E2",
"%$	c #F1F7FE",
"&$	c #D2E5FB",
"*$	c #B2D2F8",
"=$	c #B5CEE6",
"-$	c #B8C9D4",
";$	c #C0C2B3",
">$	c #C9BC92",
",$	c #DECE97",
"'$	c #F2E09C",
")$	c #F6E699",
"!$	c #FAEB95",
"~$	c #F8E579",
"{$	c #F6DF5E",
"]$	c #F5DC64",
"^$	c #EDC866",
"/$	c #E6B662",
"($	c #DAB377",
"_$	c #CCB08C",
":$	c #979691",
"<$	c #527698",
"[$	c #3C6FA4",
"}$	c #6C95C1",
"|$	c #8CAED5",
"1$	c #B8CFE9",
"2$	c #E5F0FD",
"3$	c #C4DCFA",
"4$	c #A2C7F7",
"5$	c #A9BED3",
"6$	c #B0B6AF",
"7$	c #C2B892",
"8$	c #D5B976",
"9$	c #E9D89C",
"0$	c #FDF6C2",
"a$	c #FAEA92",
"b$	c #F7DF63",
"c$	c #F8E060",
"d$	c #F8E25D",
"e$	c #F4DA6B",
"f$	c #F0D379",
"g$	c #DC984A",
"h$	c #CDAF8C",
"i$	c #BEC6CD",
"j$	c #88A2BC",
"k$	c #3A6BA0",
"l$	c #5985B4",
"m$	c #729AC4",
"n$	c #91B2D8",
"o$	c #B0CAEB",
"p$	c #A0B9D7",
"q$	c #91A8C3",
"r$	c #AAAFAC",
"s$	c #C2B694",
"t$	c #CBB78C",
"u$	c #D3B883",
"v$	c #E2CC87",
"w$	c #F0E08C",
"x$	c #F3DF75",
"y$	c #F6DF5F",
"z$	c #F4DC65",
"A$	c #F2D96A",
"B$	c #E9C667",
"C$	c #E0B464",
"D$	c #DCB67C",
"E$	c #D7B895",
"F$	c #C4BCB4",
"G$	c #B0C0D2",
"H$	c #819FBF",
"I$	c #3B6CA1",
"J$	c #39699E",
"K$	c #4977A9",
"L$	c #6A95C6",
"M$	c #7BA5D9",
"N$	c #7E97B4",
"O$	c #80898F",
"P$	c #AAA084",
"Q$	c #D5B67A",
"R$	c #D3B685",
"S$	c #D1B790",
"T$	c #DAC072",
"U$	c #E4C955",
"V$	c #ECD458",
"W$	c #F5DF5B",
"X$	c #F1D86A",
"Y$	c #EDD078",
"Z$	c #DEB264",
"`$	c #D0954F",
" %	c #D1B698",
".%	c #D2D8E0",
"+%	c #BACADC",
"@%	c #A2BBD8",
"#%	c #7A9CC2",
"$%	c #537DAB",
"%%	c #6087B3",
"&%	c #86A5C6",
"*%	c #ACC2DA",
"=%	c #B4CAE3",
"-%	c #BDD2EC",
";%	c #A9AEAA",
">%	c #958969",
",%	c #C0AE8B",
"'%	c #EAD4AD",
")%	c #DFBE90",
"!%	c #D4A872",
"~%	c #D3A555",
"{%	c #D1A238",
"]%	c #D7AE45",
"^%	c #DDBC52",
"/%	c #DBB559",
"(%	c #DAAF60",
"_%	c #C6A676",
":%	c #B29E8A",
"<%	c #C4BFBC",
"[%	c #D6E0ED",
"}%	c #B9CAE0",
"|%	c #9CB5D3",
"1%	c #7798BF",
"2%	c #38679C",
"3%	c #366499",
"4%	c #698EB7",
"5%	c #85A4C7",
"6%	c #C2D2E3",
"7%	c #D4C4A1",
"8%	c #AA8943",
"9%	c #D4BE92",
"0%	c #FFF2E0",
"a%	c #ECC69A",
"b%	c #D89A54",
"c%	c #CB8A37",
"d%	c #BE7A1A",
"e%	c #C28932",
"f%	c #C59849",
"g%	c #C69349",
"h%	c #C68E49",
"i%	c #AC9A88",
"j%	c #93A7C6",
"k%	c #B7C8E0",
"l%	c #DBE8FA",
"m%	c #B8CCE4",
"n%	c #95AFCE",
"o%	c #7395BB",
"p%	c #6388B2",
"q%	c #799AC0",
"r%	c #A5BBD5",
"s%	c #D1DCEA",
"t%	c #D5E0ED",
"u%	c #D9E2EF",
"v%	c #B8AD94",
"w%	c #977838",
"x%	c #CAAA79",
"y%	c #FCDCBA",
"z%	c #F2C796",
"A%	c #E8B272",
"B%	c #D69850",
"C%	c #C4802E",
"D%	c #BE8033",
"E%	c #BA8238",
"F%	c #CA9E64",
"G%	c #DBBA90",
"H%	c #CAC1B8",
"I%	c #B9C9E0",
"J%	c #CDDAEE",
"K%	c #E0ECFA",
"L%	c #B6C9E1",
"M%	c #8AA6C8",
"N%	c #6E90B7",
"O%	c #5C82AE",
"P%	c #6D90B8",
"Q%	c #88A5C7",
"R%	c #A3BAD6",
"S%	c #ABC0DA",
"T%	c #B3C6DF",
"U%	c #9C9686",
"V%	c #84672E",
"W%	c #BE9761",
"X%	c #F9C794",
"Y%	c #F9C892",
"Z%	c #F9C991",
"`%	c #E1A769",
" &	c #C98541",
".&	c #BC7834",
"+&	c #AE6B27",
"@&	c #CFA880",
"#&	c #F0E5D8",
"$&	c #E8E8EA",
"%&	c #DFEBFB",
"&&	c #E2EDFB",
"*&	c #E6EFFB",
"=&	c #B3C6DE",
"-&	c #809DC1",
";&	c #698AB3",
">&	c #4F76A5",
",&	c #597EAA",
"'&	c #688AB3",
")&	c #7795BB",
"!&	c #7A97BC",
"~&	c #7D99BE",
"{&	c #74736A",
"]&	c #6C5321",
"^&	c #967340",
"/&	c #C0935F",
"(&	c #CD9E66",
"_&	c #DAA86E",
":&	c #C6965C",
"<&	c #B2834B",
"[&	c #977551",
"}&	c #7C6857",
"|&	c #8A8788",
"1&	c #98A7B9",
"2&	c #98ABC4",
"3&	c #97B0CF",
"4&	c #9DB4D2",
"5&	c #A2B8D4",
"6&	c #809DC0",
"7&	c #5C7FAA",
"8&	c #5176A4",
"9&	c #315B90",
"0&	c #454A48",
"a&	c #543E14",
"b&	c #6D4F1F",
"c&	c #865F29",
"d&	c #A1733A",
"e&	c #BB874A",
"f&	c #AB844F",
"g&	c #9B8155",
"h&	c #72726E",
"i&	c #496487",
"j&	c #456690",
"k&	c #41699A",
"l&	c #486E9E",
"m&	c #4F74A3",
"n&	c #577BA8",
"o&	c #5F82AD",
"p&	c #4A70A0",
"              . + @ # $ % & * = - . . . . . . . . . . .         ",
"              . + @ # $ % & * = - . . . . . . . . . . .         ",
"            ; > , ' ) ! ~ { ] ^ / ( _ : < [ } | 1 2 3 4 5 6     ",
"            7 8 9 0 0 0 0 0 0 0 a b c d e f g h i j k l m n n   ",
"            o p q 0 r s t u v w u x c y z A B C D e E F G H I J ",
"          K L M N 0 s O P Q R S T U V W b X r Y Z 0 `  ...+.@.K ",
"          #.$.%.&.*.=.-.;.>.,.'.).!.~.{.].^.^./.(.0 _.:.<.[.}.|.",
"          1.2.3.4.5.6.7.8.9.0.a.b.c.>.d.e.f.P P g.0 h.i.j.k.l.m.",
"          n.o.p.q.r.s.t.u.v.w.x.y.z.A.-.B.C.D.E./.F.G.H.I.J.K.L.",
"          M.N.O.P.Q.R.S.T.U.V.W.X.Y.Z.`. +.+++@+#+$+%+&+*+=+-+M.",
"          ;+>+,+P.~.'+)+!+~+{+]+^+/+(+_+:+<+[+}+|+1+2+3+4+5+6+7+",
"          8+9+0+P.a+b+c+d+e+f+g+h+~+i+j+^+k+l+m+n+o+p+q+r+s+t+u+",
"          v+w+x+y+z+^+A+B+C+D+E+F+G+H+I+J+K+L+M+N+O+P+Q+R+S+T+U+",
"          V+W+X+Y+Z+~+`+`+ @.@+@@@#@#@#@$@%@&@*@=@-@;@>@,@'@)@!@",
"          ~@{@]@^@^+/@ @(@_@+@:@<@[@}@|@1@2@3@4@5@6@7@8@9@0@a@b@",
"          c@d@e@[.f@g@h@_@i@@@j@E+k@l@m@n@o@p@q@r@s@t@u@v@w@x@y@",
"        z@z@A@B@C@/@D@E@F@C+D+G@H@I@J@K@L@M@N@O@P@Q@R@S@T@U@V@W@",
"        X@X@Y@ .-.Z@`@ # # #`@.#+#@###$#%#&#*#=#-#;#>#,#'#)#!#  ",
"        ~#{#]#^#-.D+`@ # #`@/#(#_#:#<#[#}#|#1#2#3#4#5#6#7#8#    ",
"        9#0#a#b#-.C+ #c#`@`@d#e#f#g#%#h#i#j#k#l#m#n#o#p#q#      ",
"        r#s#t#` C.u#D+C+v#w#x#y#z#%#A#B#C#D#E#F#G#H#I#J#K#      ",
"        L#M#N#O#P#Q#u#i@R#S#T#U#V#h#B#W#D#X#Y#Z#`# $.$+$        ",
"        @$#$$$%$&$*$=$-$;$>$,$'$)$!$~${$]$Y#^$/$($_$:$<$        ",
"      [$}$|$1$2$3$4$5$6$7$8$9$0$a$b$c$d$e$f$/$g$h$i$j$[$        ",
"    k$k$l$m$n$o$p$q$r$s$t$u$v$w$x$y$z$A$B$C$D$E$F$G$H$I$        ",
"    J$J$K$l$L$M$N$O$P$Q$R$S$T$U$V$W$X$Y$Z$`$ %.%+%@%#%J$        ",
"    $%%%&%*%=%-%;%>%,%'%)%!%~%{%]%^%/%(%_%:%<%[%}%|%1%2%        ",
"3%3%4%5%6%0 0 0 7%8%9%0%a%b%c%d%e%f%g%h%i%j%k%l%m%n%o%3%        ",
"    p%q%r%s%t%u%v%w%x%y%z%A%B%C%D%E%F%G%H%I%J%K%L%M%N%          ",
"    O%P%Q%R%S%T%U%V%W%X%Y%Z%`% &.&+&@&#&$&%&&&*&=&-&;&          ",
"    >&,&'&)&!&~&{&]&^&/&(&_&:&<&[&}&|&1&2&3&4&5&6&7&8&          ",
"      9&9&9&9&9&0&a&b&c&d&e&f&g&h&i&j&k&l&m&n&o&p&9&9&          "};
